REM DIRINDEX 1\2,1\3,1\4,1\5
REM DIRNAME "folder01","folder02","folder03","folder04","folder05"
TITLE ""
FILE "1Q_t_0310-0319.mp3" MP3
  TRACK 01 AUDIO
    TITLE "3:cjc172_1852"
    INDEX 01 00:00:00
  TRACK 02 AUDIO
    TITLE "0:"
    INDEX 01 00:01:18
  TRACK 03 AUDIO
    TITLE "4:cjc172_1853"
    INDEX 01 00:01:31
  TRACK 04 AUDIO
    TITLE "0:"
    INDEX 01 00:05:21
  TRACK 05 AUDIO
    TITLE "5:cjc172_1854"
    INDEX 01 00:05:35
  TRACK 06 AUDIO
    TITLE "0:"
    INDEX 01 00:10:28
  TRACK 07 AUDIO
    TITLE "3:cjc172_1855"
    INDEX 01 00:11:08
  TRACK 08 AUDIO
    TITLE "0:"
    INDEX 01 00:12:29
  TRACK 09 AUDIO
    TITLE "4:cjc172_1856"
    INDEX 01 00:12:45
  TRACK 10 AUDIO
    TITLE "0:"
    INDEX 01 00:14:26
  TRACK 11 AUDIO
    TITLE "5:cjc172_1857"
    INDEX 01 00:14:42
  TRACK 12 AUDIO
    TITLE "0:"
    INDEX 01 00:20:70
  TRACK 13 AUDIO
    TITLE "3:cjc172_1858"
    INDEX 01 00:21:50
  TRACK 14 AUDIO
    TITLE "0:"
    INDEX 01 00:22:73
  TRACK 15 AUDIO
    TITLE "4:cjc172_1859"
    INDEX 01 00:23:15
  TRACK 16 AUDIO
    TITLE "0:"
    INDEX 01 00:25:67
  TRACK 17 AUDIO
    TITLE "5:cjc172_1860"
    INDEX 01 00:26:06
  TRACK 18 AUDIO
    TITLE "0:"
    INDEX 01 00:32:53
  TRACK 19 AUDIO
    TITLE "3:cjc172_1861"
    INDEX 01 00:33:31
  TRACK 20 AUDIO
    TITLE "0:"
    INDEX 01 00:34:43
  TRACK 21 AUDIO
    TITLE "4:cjc172_1862"
    INDEX 01 00:34:58
  TRACK 22 AUDIO
    TITLE "0:"
    INDEX 01 00:36:47
  TRACK 23 AUDIO
    TITLE "5:cjc172_1863"
    INDEX 01 00:36:61
  TRACK 24 AUDIO
    TITLE "0:"
    INDEX 01 00:42:34
  TRACK 25 AUDIO
    TITLE "3:cjc172_1864"
    INDEX 01 00:43:14
  TRACK 26 AUDIO
    TITLE "0:"
    INDEX 01 00:44:21
  TRACK 27 AUDIO
    TITLE "4:cjc172_1865"
    INDEX 01 00:44:37
  TRACK 28 AUDIO
    TITLE "0:"
    INDEX 01 00:48:56
  TRACK 29 AUDIO
    TITLE "5:cjc172_1866"
    INDEX 01 00:48:70
  TRACK 30 AUDIO
    TITLE "0:"
    INDEX 01 00:54:39
  TRACK 31 AUDIO
    TITLE "3:cjc172_1867"
    INDEX 01 00:55:17
  TRACK 32 AUDIO
    TITLE "0:"
    INDEX 01 00:56:40
  TRACK 33 AUDIO
    TITLE "4:cjc172_1868"
    INDEX 01 00:56:54
  TRACK 34 AUDIO
    TITLE "0:"
    INDEX 01 00:59:74
  TRACK 35 AUDIO
    TITLE "5:cjc172_1869"
    INDEX 01 01:00:12
  TRACK 36 AUDIO
    TITLE "0:"
    INDEX 01 01:04:16
  TRACK 37 AUDIO
    TITLE "3:cjc172_1870"
    INDEX 01 01:04:69
  TRACK 38 AUDIO
    TITLE "0:"
    INDEX 01 01:06:07
  TRACK 39 AUDIO
    TITLE "4:cjc172_1871"
    INDEX 01 01:06:25
  TRACK 40 AUDIO
    TITLE "0:"
    INDEX 01 01:08:28
  TRACK 41 AUDIO
    TITLE "5:cjc172_1872"
    INDEX 01 01:08:41
  TRACK 42 AUDIO
    TITLE "0:"
    INDEX 01 01:12:27
  TRACK 43 AUDIO
    TITLE "3:cjc172_1873"
    INDEX 01 01:13:07
  TRACK 44 AUDIO
    TITLE "0:"
    INDEX 01 01:14:03
  TRACK 45 AUDIO
    TITLE "4:cjc172_1874"
    INDEX 01 01:14:17
  TRACK 46 AUDIO
    TITLE "0:"
    INDEX 01 01:15:59
  TRACK 47 AUDIO
    TITLE "5:cjc172_1875"
    INDEX 01 01:15:75
  TRACK 48 AUDIO
    TITLE "0:"
    INDEX 01 01:20:09
  TRACK 49 AUDIO
    TITLE "3:cjc172_1876"
    INDEX 01 01:20:64
  TRACK 50 AUDIO
    TITLE "0:"
    INDEX 01 01:22:02
  TRACK 51 AUDIO
    TITLE "4:cjc172_1877"
    INDEX 01 01:22:20
  TRACK 52 AUDIO
    TITLE "0:"
    INDEX 01 01:25:24
  TRACK 53 AUDIO
    TITLE "5:cjc172_1878"
    INDEX 01 01:25:42
  TRACK 54 AUDIO
    TITLE "0:"
    INDEX 01 01:31:52
  TRACK 55 AUDIO
    TITLE "3:cjc172_1879"
    INDEX 01 01:32:32
  TRACK 56 AUDIO
    TITLE "0:"
    INDEX 01 01:33:33
  TRACK 57 AUDIO
    TITLE "4:cjc172_1880"
    INDEX 01 01:33:47
  TRACK 58 AUDIO
    TITLE "0:"
    INDEX 01 01:36:34
  TRACK 59 AUDIO
    TITLE "5:cjc172_1881"
    INDEX 01 01:36:48
  TRACK 60 AUDIO
    TITLE "0:"
    INDEX 01 01:41:17
